Patient4_TMGait_0pt8_01_right_33_EMG.mot
version=1
nRows=16
nColumns=33
inDegrees=no
endheader
time	1LAddLong	2LGlutMax	3LGlutMed	4LIliopsoas	5LSemiMemb	6LBicFemLong	7LRecFem	8LVastMed	9LVastLat	10LGasMed	11LTibAnt	12lTibPost	13LPeroneusLong	14LSol	15LExtDigLong	16LFlexDigLong	17RAddLong	18RGlutMax	19RGlutMed	20RIliopsoas	21RSemiMemb	22RBicFemLong	23RRecFem	24RVastMed	25RVastLat	26RGasMed	27RTibAnt	28RTibPost	29RPeroneusLong	30RSol	31RExtDigLong	32RFlexDigLong
36.96	0.001373	-0.28458	-0.17059	0.022125	-0.02594	0.37506	0.012817	0.006561	0.088959	-0.019531	-0.10162	0.002594	-0.44861	-0.044098	-0.044708	0.013123	0.011597	-0.033112	0.26321	0.084686	0.040283	0.12314	-0.064392	-0.10239	-0.053711	-0.003052	0.09201	0.003815	-0.061951	-0.022888	0.00351	-0.0177
36.961	-0.007629	-0.27054	-0.09903	0	-0.010681	0.1857	0.015411	0.016174	0.1001	-0.091095	-0.3627	-0.003662	0.076447	0.21561	0.1799	0.015869	0.010071	-0.014343	0.39414	0.027161	0.032043	0.11124	-0.032654	-0.022583	-0.025177	0.003662	0.094604	-0.008392	0.040741	-0.015564	0.002289	-0.024414
36.962	-0.000916	-0.27588	-0.081177	0.019226	0.00885	-0.42191	-0.016785	0.015411	0.09552	0.10437	-0.16327	-0.00061	-0.053711	0.079041	0.37369	-0.006714	0.004425	-0.018768	0.45227	-0.053711	0.031891	0.093689	-0.033417	-0.042267	-0.0354	-0.007324	0.19211	-0.009003	0.025787	-0.011902	0.001984	-0.044403
36.963	0.015411	-0.25665	-0.037384	0.007935	0.038452	-0.89004	-0.087738	0.008087	0.17059	0.11795	0.24307	0.007172	-0.14984	0.062256	0.34988	0.001984	-0.011139	-0.027313	0.89539	-0.058746	0.032806	0.10178	-0.002136	-0.079803	-0.047913	-0.007172	0.2121	-0.00824	0.026398	0.022736	0.002747	-0.046844
36.964	0.005188	-0.24902	0.003815	0.004578	0.063171	-0.62988	-0.069427	0.001526	0.17624	0.084991	0.47195	0.00824	-0.46585	0.02594	-0.13626	0.007019	-0.004578	-0.027008	0.82275	-0.034943	0.020294	0.10452	0.030975	-0.042267	-0.037994	0.000153	0.12207	-0.008698	-0.061035	0.04303	-0.003357	-0.058289
36.965	0.007019	-0.25436	-0.047302	-0.004578	0.042877	-0.17868	-0.005951	-0.005798	0.19394	-0.0177	0.42419	0.011139	-0.18005	0.045166	-0.00824	0.007629	-0.007324	-0.11551	0.44067	0.009155	0.019684	0.094299	-0.024719	-0.080109	-0.048981	-0.010071	0.009613	0	-0.1239	-0.007935	-0.000305	-0.059204
36.966	0.021362	-0.24048	-0.13992	0.016937	0.015717	0.037384	0.000458	-0.002289	0.14999	0.16434	0.14557	-0.00473	0.33661	-0.054932	-0.12482	-0.00412	-0.000153	-0.10071	0.17532	0.037994	0.014648	0.097046	-0.052338	-0.037537	-0.046692	-0.00061	-0.071564	-0.00824	-0.056152	-0.013428	-0.001221	-0.047607
36.967	-0.024261	-0.20584	-0.14358	-0.003204	0.015106	0.04425	0.019836	0.00061	0.085907	0.23148	-0.18021	-0.00824	0.72388	0.071716	-0.24338	-0.000305	0.007935	-0.044098	0.21698	0.086823	0.025787	0.087585	-0.05188	-0.065308	-0.031433	0.009003	-0.041199	-0.00824	0.011139	0.017853	-0.000305	-0.029755
36.968	-0.057678	-0.21851	-0.015564	-0.000153	0.001526	-0.075836	0.033417	0.00412	0.056458	0.24307	-0.26901	-0.014648	0.30365	0.037537	-0.3392	-0.008087	0.00061	-0.036011	0.3096	0.20721	0.017853	0.092163	-0.070343	0.028992	-0.04303	0.014343	-0.009155	-0.009918	-0.005035	0.054474	0.003967	-0.040741
36.969	0.021667	-0.22934	-0.10666	0.024414	-0.034943	-0.089874	0.020905	0.004578	0.024719	0.81314	-0.2182	-0.009308	0.065002	-0.15808	-0.29587	0.010681	0.003357	-0.11612	0.40222	0.23392	0.033264	0.081635	0.003662	0.06485	-0.035706	0.024719	0.09613	-0.005951	-0.22018	-0.004425	0.001678	-0.04364
36.97	-0.011902	-0.23544	-0.000305	0.000916	-0.075531	-0.008698	0.037994	0.007477	0.016327	0.37201	-0.14374	-0.007477	-0.37033	-0.28809	-0.21423	0.003357	-0.013275	-0.088959	0.8194	0.05661	0.038147	0.074005	0.033875	0.024567	-0.032959	0.037689	0.098114	-0.007629	-0.41596	-0.074463	-0.001526	-0.034027
36.971	-0.010223	-0.21561	0.19913	0.005951	-0.088654	0.077209	0.028992	0.005646	0.041351	0.11993	-0.067902	0.003967	-0.54733	-0.19653	-0.018616	0.001678	-0.009003	-0.08316	0.81863	-0.056152	0.03006	0.075378	-0.015869	-0.006561	-0.033417	0.049438	0.071564	-0.010529	0.062256	-0.04776	-0.000153	-0.037079
36.972	0.00824	-0.23972	0.15167	0.003815	-0.040588	0.14755	0.036774	0.014801	-0.000916	0.41122	0.033112	0.005646	0.027161	-0.23605	0.00473	0.00473	0.00824	-0.11383	0.7692	-0.072021	-0.033417	0.08728	-0.018311	0.00061	-0.037231	0.065918	0.11841	-0.00885	0.24674	-0.057678	0.000916	-0.033112
36.973	0.018005	-0.22766	0.082092	0.007629	0.052948	0.27374	0.026855	0.015717	0.12924	0.82489	-0.015411	0.091705	0.42175	-0.42206	0.022736	-0.000305	0.003204	-0.11078	0.56473	-0.071564	-0.030212	0.07019	-0.074463	-0.067902	-0.045013	0.068054	0.068054	-0.017548	0.28534	-0.04776	0	-0.038757
36.974	0.023956	-0.23926	0.04715	0.010681	0.074158	0.29495	0.050964	-0.000763	0.32211	0.28305	-0.044403	0.019836	0.25101	-0.50415	0.12421	0.013428	0.010834	-0.085144	0.27313	-0.023041	-0.007629	0.06897	-0.075836	-0.060272	-0.04776	0.062408	0.07782	-0.009155	-0.19959	-0.054321	0.00061	-0.043182
36.975	0.015869	-0.25955	0.059509	0.013885	0.1004	0.27176	0.069427	0.008087	0.19989	-0.080566	-0.0383	-0.10605	0.14603	-0.47012	0.1445	0.081482	0.010376	-0.097961	0.060577	-0.020447	0.021667	0.037689	-0.034637	-0.087128	-0.054169	0.069427	0.084229	-0.007935	-0.28122	-0.11017	0.001221	-0.033875
